# xmcd CD database file
#
# Track frame offsets:
#	150
#	16680
#	35555
#	48807
#	64482
#	85358
#	100073
#	109368
#	130140
#	143500
#	167638
#	183803
#	217880
#	272978
#	287993
#	302578
#	315798
#
# Disc length: 4423 seconds
#
# Revision: 0
# Processed by: cddbd v1.5.2PL0 Copyright (c) Steve Scherf et al.
# Submitted via: CD2WAV32(JP) R3.22
#
DISCID=e5114511
DTITLE=Ohta-san - HAWAII - The Best Selection from M&H HAWAII
DYEAR=2010
DGENRE=Country
TTITLE0=Song for Anna
TTITLE1=Rhapsody In Blue
TTITLE2=The Entertainer
TTITLE3=One [From The Musical "A Chorus Line"]
TTITLE4=Misty
TTITLE5=Tenderly
TTITLE6=Four Brothers
TTITLE7=Desafinado
TTITLE8=Something
TTITLE9=Fools Rush In
TTITLE10=On A Coconut Island
TTITLE11=Poor Butterfly
TTITLE12=My Foolish Heart
TTITLE13=What A Wonderful World
TTITLE14=Hole Hole Bushi
TTITLE15=Kipahulu
TTITLE16=Hawaii
EXTD=
EXTT0=
EXTT1=
EXTT2=
EXTT3=
EXTT4=
EXTT5=
EXTT6=
EXTT7=
EXTT8=
EXTT9=
EXTT10=
EXTT11=
EXTT12=
EXTT13=
EXTT14=
EXTT15=
EXTT16=
PLAYORDER=
